<svg xmlns="http://www.w3.org/2000/svg" xml:space="preserve" id="prefix__Layer_1" x="0" y="0" version="1.1" viewBox="0 0 1000 1000"><style>.prefix__st0{fill:#fff}</style><path d="M940.05 578.34s-37.23-.62-59.04-9.86c-5.32-2.17-9.89-4.64-14.57-6.96-17.75-10.21-37.88-15.88-58.51-16.46 22.18-15.48 61.75-48.87 106.38-113.53 38.87-56.2 67.6-118.41 84.95-183.96l.75-5.16-4.15 3.77c-16.03 18.95-36.15 34.26-58.94 44.84-17 6.85-34.45 12.59-52.23 17.18-29.31 8.36-59.57 16.92-87.18 33.59l-3.35 2.11c-1.33-6.64-3.11-13.19-5.32-19.61a219.3 219.3 0 0 0 12.5-68.17c-.1-22.01-2.74-43.94-7.87-65.38-1.91-9.24-3.88-18.78-5.32-29.05-2.91-18.29-.27-37.01 7.61-53.87l2.82-6.81-8.83 3.35s-68.88 29.16-118.88 69.51a233 233 0 0 0-17.71 15.79c-2.13-4.33-5.32-11.4-9.47-20.64a61.2 61.2 0 0 1-5-29.26l.64-5.16-6.49 3.61a347 347 0 0 0-30.9 18.63c-8.88 6.09-16.97 12.02-21.75 15.48a398 398 0 0 0-34.68-40.82c-4.52-4.75-8.46-8.93-11.65-12.69A289.7 289.7 0 0 1 500 67.48v6.24c0 .93 0 23.07 24.79 51.09l.96 1.08c41.53 44.8 71.37 98.62 87.02 156.92a318 318 0 0 1 6.6 132.1c-19.26-13.69-40.7-24.25-63.46-31.27a155.6 155.6 0 0 1-21.28-9.24c-15.69-8.49-27.9-21.93-34.63-38.08v7.23c0 2.06-.32 29.57 50.85 49.43 53.56 20.64 85.11 54.39 84.79 96.03-.37 67.45-71.22 98.05-81.81 102.07a96 96 0 0 0-20.64-2.37c-8.05-.19-16.1.5-23.99 2.06-5.75 1.39-9.15 3.46-9.15 6.14 0 5.16 11.54 7.23 21.28 7.23 6.91 0 67.45.82 67.45 43.29 0 25.03-31.6 40.92-54.63 51.6-5.32 2.58-10.64 5.94-14.79 8.2-20.96 11.82-19.1 43.4-19.1 43.4s0-20.64 27.23-35.55c7.85-4.14 16.05-7.59 24.52-10.32 19.57-6.5 40.05-13.98 49.47-31.53 11.26 4.18 23.21 6.29 35.26 6.24 12.49-.03 24.86-2.3 36.49-6.71 15.1 6.29 31.45 9.24 47.87 8.62 52.07 0 111.12-24.82 157.93-66.31a245.2 245.2 0 0 1 61.02-36.73m-334.09 79.99c.46-3.42.68-6.87.64-10.32 0-28.38-15.96-41.28-31.28-49.28 24.15-7.94 45.1-23.05 59.89-43.19h44.52c35.66-.67 69.79-14.19 95.75-37.93-15.7 21.59-28.04 45.3-36.6 70.39-13.83 37.36-75.69 73.95-103.78 74-5.18-.2-10.35-.65-15.48-1.34-4.62-.48-9.35-1.45-13.66-2.33m163.19-112.91-3.19 1.96a318 318 0 0 1 21.28-41.9c-29.83 22.32-66.04 35.15-103.67 36.74a283.5 283.5 0 0 0 34.79-35.55c9.84-12.13 19.04-34.26 28.72-57.74 12.08-29.1 24.58-59.24 40.32-76.63 20.43-22.55 53.19-34.62 102.77-52.94l29.52-10.99c37.23-14.14 57.66-31.27 68.46-43.66-12.66 29.67-40 89.63-73.99 139.79-30.69 45.36-80.16 106.25-141.17 139.33zm-15.96-290.11c14.68 45.87 21.28 72.5 23.35 95.05 0 2.22.48 4.18.8 5.94-25.11 22.03-33.56 47.16-41.7 71.47-2.02 6.14-4.15 12.49-6.54 18.58-14.1 36.69-39.95 68.79-57.98 83.08a83 83 0 0 0-13.62 12.8h-13.72c8.16-16.05 12.37-33.71 12.29-51.6.63-20.47-5.77-40.57-18.19-57.12 8.77-50.7 6.5-102.63-6.65-152.43a368 368 0 0 1 42.55-33.44c23.88-16.93 62.07-42.68 73.62-50.47-1.81 19.55.15 39.27 5.79 58.14m4.2 317c.64-2.37 1.38-4.85 2.24-7.48 1.75.36 3.53.51 5.32.46 7.83-.27 15.64-1.08 23.35-2.43 2.87-.43 5.77-.64 8.67-.62 19.36 0 45.48 7.43 68.51 14.04l10.21 2.89c11.03 2.99 22.44 4.45 33.88 4.33h4.31c-21.34 9.33-41.16 21.64-58.83 36.54-37.23 29.98-115.1 43.3-138.3 43.35-7.21-.12-14.41-.69-21.54-1.7 29.1-19.05 51.7-51.25 62.18-89.38m20.27-419.53c.28 10.93 1.31 21.82 3.09 32.61a363 363 0 0 1 4.41 52.89c-.32 18.55-2.8 37-7.39 55.01-1.65-4.33-3.25-8.62-4.9-12.8-4.47-11.61-8.67-22.6-11.54-30.96-6.29-19.78-9.36-40.4-9.1-61.1 0 0-56.81 32.51-88.72 53.31a297.6 297.6 0 0 0-35.85 26.27c-.43-1.24-.8-2.48-1.22-3.72 4.73-14.55 18.78-44.33 59.63-84.22s99.36-69.25 105.05-72.24c-8.9 13.4-13.58 29.02-13.46 44.95m-142.5 18.78 8.46 28.48c-10.8 11.96-19.59 25.49-26.06 40.1a322.7 322.7 0 0 0-29.73-56.76c5.49-6.13 11.41-11.89 17.71-17.24 10.96-9.29 24.04-19.97 28.3-23.48a54 54 0 0 0 1.32 28.9" class="prefix__st0"/><path d="M121.38 615.03c46.76 41.28 105.8 66.26 157.87 66.31 16.42.62 32.78-2.32 47.87-8.62 11.63 4.4 24 6.68 36.49 6.71 12.07.05 24.05-2.06 35.32-6.25 9.41 17.55 29.9 25.03 49.47 31.53a154 154 0 0 1 24.52 10.32C500 730.06 500 750.59 500 750.75c0 .15 1.86-31.58-19.1-43.4-4.1-2.27-9.31-5.63-14.79-8.2-23.03-10.79-54.63-26.68-54.63-51.6 0-42.47 60.53-43.3 67.45-43.3 9.52 0 21.28-1.86 21.28-7.22 0-2.68-3.4-4.75-9.15-6.14-7.89-1.56-15.94-2.25-23.99-2.06-6.95.04-13.87.84-20.64 2.37-10.64-4.18-81.44-34.63-81.81-102.07 0-41.64 31.22-75.29 84.79-96.03 50.96-19.97 50.59-47.63 50.59-49.54v-7.23c-6.67 16.13-18.81 29.56-34.41 38.08-6.84 3.6-13.95 6.69-21.28 9.24-22.76 7.01-44.2 17.58-63.46 31.27-7.09-44.01-4.84-88.96 6.6-132.1 15.58-58.28 45.32-112.09 86.75-156.92l.96-1.08C500 96.79 500 74.65 500 73.72v-6.24a292 292 0 0 1-33.83 51.6c-3.19 3.77-7.13 7.95-11.65 12.69a398 398 0 0 0-34.68 40.82c-4.79-3.61-12.87-9.55-21.75-15.48a348 348 0 0 0-31.06-18.73l-6.33-3.82.64 5.16c.77 10-.92 20.03-4.95 29.26-3.99 9.29-7.34 16.36-9.47 20.64a235 235 0 0 0-17.71-15.79c-50.05-40.3-118.24-69.2-118.94-69.46-.69-.26-8.72-3.2-8.83-3.35l2.82 6.81c7.86 16.81 10.53 35.47 7.66 53.72-1.49 10.32-3.46 19.82-5.32 29.05a285.4 285.4 0 0 0-7.87 65.38c.51 23.21 4.7 46.2 12.45 68.17-2.21 6.41-3.99 12.97-5.32 19.61l-3.35-2.11c-27.61-16.67-57.87-25.23-87.18-33.59a425 425 0 0 1-52.23-17.18c-22.79-10.59-42.91-25.89-58.94-44.84L0 242.26l.74 5.16C18 312.99 46.64 375.23 85.43 431.48c44.79 64.5 84.36 98.04 106.38 113.52-20.63.58-40.76 6.25-58.51 16.46-4.68 2.32-9.47 4.8-14.57 6.97-21.54 9.24-58.51 9.85-59.04 9.85 22.33 9.21 43.12 21.6 61.69 36.75m258.89 45.88c-5.13.7-10.3 1.15-15.48 1.34-28.09 0-89.95-36.64-103.78-74-8.56-25.08-20.89-48.8-36.59-70.39 25.95 23.74 60.08 37.26 95.74 37.93h44.52c14.82 20.16 35.82 35.27 60 43.19-15.27 8.05-31.44 20.64-31.28 49.28-.04 3.45.17 6.9.64 10.32-4.31.63-9.04 1.61-13.77 2.33m-153.25-117.5c-61.01-32.82-110.48-93.71-141.17-139.07-33.99-50.16-61.33-110.12-73.99-139.79 10.64 12.38 31.22 29.52 68.51 43.66l29.47 10.99c49.73 18.32 82.34 30.39 102.93 52.74 15.96 17.39 28.24 47.53 40.32 76.63 9.68 23.48 18.88 45.62 28.72 57.74a282.5 282.5 0 0 0 34.63 35.92c-37.5-1.66-73.57-14.49-103.3-36.74 8 13.46 14.99 27.46 20.9 41.9l-3.35-1.8zm25.69-346.61c11.54 7.79 49.74 33.54 73.62 50.47a368 368 0 0 1 42.55 33.44c-13.15 49.81-15.42 101.73-6.65 152.43-12.42 16.56-18.82 36.65-18.19 57.12-.08 17.89 4.13 35.56 12.29 51.6h-13.72a83 83 0 0 0-13.62-12.59c-18.03-14.29-43.83-46.44-57.98-83.08-2.39-6.09-4.52-12.44-6.54-18.58-8.14-24.3-16.6-49.44-41.7-71.47.32-1.75.58-3.72.8-5.94 2.13-22.55 8.67-49.18 23.35-95.05 5.66-18.93 7.63-38.72 5.79-58.35m52.4 464.83c-7.05 1.01-14.15 1.58-21.28 1.7-23.25 0-101.07-13.37-138.3-43.35-17.77-14.9-37.7-27.19-59.15-36.48h4.31c11.36.09 22.68-1.37 33.62-4.33l10.21-2.89c23.03-6.6 49.15-14.04 68.51-14.04 2.9-.02 5.8.19 8.67.62a170 170 0 0 0 23.19 2.43c1.79.05 3.57-.11 5.32-.46.85 2.63 1.6 5.16 2.24 7.48 10.64 38.13 33.24 70.33 62.66 89.32M209.1 107.99c5.69 2.84 64.74 32.72 105.05 72.24 40.32 39.53 54.89 69.66 59.63 84.22-.43 1.24-.8 2.48-1.22 3.72a297 297 0 0 0-36.06-26.42c-31.92-20.64-88.72-53.31-88.72-53.31.26 20.7-2.81 41.31-9.1 61.1-2.87 8.51-7.07 19.51-11.54 30.96-1.65 4.18-3.24 8.46-4.89 12.8-4.6-18.01-7.08-36.46-7.39-55.01.18-17.71 1.66-35.39 4.41-52.89 1.77-10.79 2.8-21.69 3.09-32.61.13-15.87-4.47-31.43-13.26-44.8m157.34 34.62c4.25 3.51 17.34 14.19 28.3 23.48 6.3 5.34 12.22 11.1 17.71 17.24a322.4 322.4 0 0 0-29.74 56.76c-6.47-14.6-15.27-28.13-26.06-40.09l8.19-28.48a54.15 54.15 0 0 0 1.6-28.91M227.87 851.02c-5.54.26-11.08-.58-16.27-2.49a40.6 40.6 0 0 1-13.89-8.6c-3.78-4.02-6.7-8.72-8.6-13.84a40 40 0 0 1-2.46-15.98c-.25-5.54.78-11.07 2.99-16.18 2.22-5.11 5.57-9.69 9.83-13.39 8.74-7.1 19.89-10.78 31.28-10.32 8.5-.02 16.9 1.74 24.63 5.16l1.86.83-.75 1.86c-.43 1.03-.8 2.22-1.22 3.56-.36 1.36-.65 2.74-.85 4.13v1.39l-3.67.93-.85-1.08a23.3 23.3 0 0 0-8.94-6.19 26.6 26.6 0 0 0-10.64-2.27c-4.07-.2-8.12.56-11.83 2.2a25.34 25.34 0 0 0-9.45 7.24c-5.01 6.56-7.55 14.6-7.18 22.76-.37 8.33 2.35 16.51 7.66 23.07 2.43 2.79 5.49 5.01 8.93 6.49 3.45 1.48 7.2 2.17 10.96 2.03 3.99-.04 7.94-.79 11.65-2.22 3.93-1.35 7.54-3.44 10.64-6.14l3.94-3.51-.85 13.16-.9.57c-3.69 2.35-7.75 4.1-12.02 5.16a62.2 62.2 0 0 1-14 1.67m93.51-6.5a6.83 6.83 0 0 0 2.18 2.68c1.85 1.37 4.11 2.1 6.44 2.06l4.25-.46c1.41-.21 2.78-.65 4.04-1.29l1.12-.57v-5.99l-5.69.72c-.11-.65-.11-1.31 0-1.96v-26.58c0-13.11-6.97-20.07-20.16-20.07-3.43-.02-6.83.55-10.05 1.7-3.24 1.2-6.31 2.77-9.15 4.7l-.9.62v9.24h5.32l.43-1.6c.51-1.5 1.57-2.77 2.98-3.56 2.33-1.64 5.15-2.47 8.03-2.37 1.46-.15 2.94.02 4.32.5s2.63 1.26 3.65 2.28a9.22 9.22 0 0 1 2.67 7.8c.08.85-.16 1.7-.68 2.38-.52.69-1.28 1.16-2.14 1.34-2.34.62-4.72 1.07-7.13 1.34-6.49.41-12.75 2.49-18.14 6.04a14.9 14.9 0 0 0-3.5 5.21c-.78 1.96-1.13 4.05-1.02 6.14-.06 2.11.36 4.21 1.24 6.15.87 1.94 2.18 3.66 3.82 5.05 3.25 2.83 7.5 4.34 11.86 4.23 5.94.09 11.72-1.94 16.21-5.73m-1.06-21.47v12.8l-.48.51-1.76 1.55a11.2 11.2 0 0 1-3.4 2.42c-1.2.6-2.53.94-3.88.98-2.38.17-4.74-.55-6.6-2.01-.77-.8-1.36-1.76-1.73-2.8s-.5-2.15-.4-3.24c-.03-1.62.46-3.2 1.42-4.53a7.88 7.88 0 0 1 3.9-2.85 74 74 0 0 1 11.44-2.43zm70.1 26.68c1.68-.42 3.33-.93 4.95-1.55l1.33-.57v-6.66l-2.66.67-2.24.52q-1.17.15-2.34 0c-.83.09-1.66-.03-2.43-.34-.77-.32-1.43-.82-1.94-1.46a17.23 17.23 0 0 1-1.91-9.85V801.8h12.29l-.53-3.87.43-4.39h-12.18v-15.07l-12.98 5.16v9.91h-7.61l.85 2.73q.09.75 0 1.5c.06.41.06.83 0 1.24l-.96 2.79h7.71v30.96c-.43 4.86 1.03 9.7 4.1 13.57a14.7 14.7 0 0 0 5.12 3.01c1.9.65 3.93.9 5.94.75 1.7.11 3.41-.01 5.06-.36m61.18 0c1.68-.42 3.33-.93 4.95-1.55l1.38-.57v-6.66l-2.71.67-2.23.52q-1.17.15-2.34 0a4.92 4.92 0 0 1-4.37-1.81 17.23 17.23 0 0 1-1.91-9.85v-28.69h12.29l-.53-3.87.43-4.39h-12.18v-15.07l-12.93 5.16v9.91h-7.66l.85 2.73q.135.75 0 1.5V799l-.9 2.79h7.71v30.96c-.44 4.85 1 9.7 4.04 13.57a14.6 14.6 0 0 0 5.12 3.01c1.9.65 3.93.9 5.94.75 1.69.12 3.39 0 5.05-.35m41.86 0 2.5-.41 2.39-.36h1.54l6.75.82v-56.25l-6.7.67c-.56.06-1.14.06-1.7 0l-2.34-.31-2.45-.31zm11.96-67.08c.73-.66 1.31-1.46 1.71-2.35s.62-1.84.63-2.81a7.2 7.2 0 0 0-.58-2.97c-.4-.94-1-1.79-1.76-2.5-.68-.71-1.5-1.27-2.42-1.65-.91-.38-1.9-.58-2.9-.57s-1.98.22-2.9.61c-.91.39-1.74.95-2.42 1.66a7.5 7.5 0 0 0-1.75 2.47c-.4.93-.6 1.93-.6 2.94.01.97.23 1.94.64 2.83s1.01 1.68 1.76 2.34a7.93 7.93 0 0 0 5.32 2.11c.99.05 1.97-.1 2.9-.44s1.77-.86 2.48-1.52zm68.3 65.79c3.46-1.27 6.72-3.01 9.68-5.16l.85-.57.48-11.66-3.83 3.46a30 30 0 0 1-6.12 4.39c-2.69 1.5-5.73 2.32-8.83 2.37-2.39.12-4.78-.27-6.99-1.17-2.21-.89-4.18-2.26-5.78-3.99-3.12-3.63-4.77-8.23-4.63-12.95h38.4v-4.44c.19-3.61-.38-7.22-1.68-10.61s-3.3-6.49-5.87-9.1c-2.25-2.13-4.91-3.8-7.83-4.92a24.2 24.2 0 0 0-9.19-1.58c-3.87-.17-7.73.49-11.31 1.93a26.3 26.3 0 0 0-9.38 6.43c-4.81 5.68-7.3 12.88-6.97 20.23-.21 3.84.38 7.68 1.72 11.29s3.42 6.93 6.1 9.76c2.7 2.57 5.91 4.58 9.45 5.9 3.53 1.32 7.3 1.93 11.09 1.78 3.6.2 7.2-.22 10.64-1.24zm-25.05-33.28c.24-3.42 1.45-6.71 3.51-9.5 1.1-1.62 2.6-2.94 4.37-3.84s3.74-1.36 5.74-1.32c1.84-.14 3.68.24 5.31 1.08s2.98 2.11 3.89 3.67a21.55 21.55 0 0 1 2.45 9.8zm66.97 34.88 2.6-.52 2.34-.46h1.54l6.7.67v-27.5c-.36-5.03.54-10.08 2.61-14.71a9.8 9.8 0 0 1 4.09-3.76c1.71-.84 3.64-1.19 5.54-.99 1.66-.19 3.35.11 4.83.87 1.48.75 2.69 1.93 3.47 3.36 1.57 3.67 2.24 7.65 1.97 11.61v31.48l2.61-.51 2.34-.46h1.54l6.7.67v-33.54c.45-6.09-1.19-12.15-4.68-17.24a18.66 18.66 0 0 0-7-4.72 19.05 19.05 0 0 0-8.43-1.21c-2.9-.04-5.78.5-8.46 1.58s-5.1 2.69-7.12 4.71v-5.83l-6.7.67c-.56.06-1.14.06-1.7 0l-2.34-.31-2.45-.31zm110.42-4.49c2.35-1.66 4.26-3.85 5.55-6.39a17.1 17.1 0 0 0 1.85-8.16c0-7.02-4.9-12.07-14.57-15.12-5.32-1.65-11.6-4.49-11.6-8.57-.11-.95.01-1.91.35-2.81s.9-1.7 1.62-2.35a9.04 9.04 0 0 1 5.85-1.75c1.59.01 3.12.58 4.31 1.6 1.42 1.11 2.54 2.55 3.25 4.18l.53 1.29h3.99l.42-1.55c.66-2.55 1.51-5.05 2.55-7.48l.74-1.7-1.65-.88c-1.66-.94-3.45-1.64-5.32-2.06a34.2 34.2 0 0 0-8.25-1.03c-5.23-.16-10.34 1.51-14.41 4.7a16.7 16.7 0 0 0-4.54 6 16.2 16.2 0 0 0-1.37 7.32c0 7.69 4.95 12.95 14.63 15.48 5.32 1.45 11.54 4.08 11.54 8.2.04 1.06-.16 2.12-.59 3.09s-1.09 1.84-1.91 2.54a9.15 9.15 0 0 1-6.22 2.22c-2.1-.05-4.13-.73-5.8-1.96-2-1.4-3.72-3.15-5.05-5.16l-.64-.98h-3.88l-.26 1.75c-.27 1.2-.61 2.39-1.01 3.56l-1.91 5.47 1.49.83c4.56 2.66 9.79 4.04 15.11 3.97 5.4.3 10.74-1.14 15.21-4.08zm69.15-1.19a6.8 6.8 0 0 0 2.13 2.68c1.91 1.35 4.23 2.04 6.6 1.96l4.31-.46c1.4-.22 2.74-.65 3.99-1.29l1.17-.57v-5.99l-5.69.72h-.32c-.11-.65-.11-1.31 0-1.96v-26.32c0-13.11-6.97-20.07-20.11-20.07a29.6 29.6 0 0 0-10.1 1.7 41 41 0 0 0-9.1 4.7l-.96.62v9.24h5.32l.43-1.6a6.72 6.72 0 0 1 2.98-3.56c2.33-1.63 5.16-2.47 8.03-2.37 1.48-.13 2.98.04 4.39.5s2.71 1.2 3.8 2.18c.98 1.07 1.73 2.32 2.2 3.68.47 1.35.67 2.79.56 4.22.08.85-.16 1.7-.68 2.38-.52.69-1.28 1.16-2.14 1.34a50 50 0 0 1-7.18 1.34c-6.43.5-12.61 2.64-17.93 6.19a15 15 0 0 0-3.48 5.21c-.77 1.96-1.1 4.05-.99 6.14-.07 2.11.34 4.21 1.21 6.14.86 1.94 2.16 3.66 3.79 5.05 3.27 2.83 7.53 4.35 11.92 4.23 5.93.01 11.66-2.08 16.12-5.88zm-1.11-21.46v12.8l-.48.51c-.64.62-1.28 1.14-1.75 1.55a10.5 10.5 0 0 1-3.4 2.42c-1.69.84-3.59 1.19-5.48 1.01a9.95 9.95 0 0 1-5.16-2.04 8.3 8.3 0 0 1-1.94-3.53 8.1 8.1 0 0 1-.04-4c.32-1.32.96-2.54 1.87-3.56a8.6 8.6 0 0 1 3.35-2.32 74 74 0 0 1 11.7-2.27zm-579.51 97.51 4.3-28.4h8.73v40.01h-5.94v-28.68l-4.32 28.68h-5.94l-4.69-28.29v28.29h-5.5v-40.01h8.73zm61.03-11.52h8.65v5.69h-8.65v11.72h10.85v5.72h-17.13v-40.01h17.13v5.72h-10.85zm51.9-16.88h9.93c6.25 0 9.38 3.3 9.38 9.9v20.23c0 6.58-3.13 9.88-9.38 9.88h-9.93zm6.28 5.72v28.57h3.54c2.14 0 3.21-1.29 3.21-3.88v-20.81c0-2.59-1.07-3.88-3.21-3.88zm54.19-5.72h6.28v40.01h-6.28zm68.37 40.01h-6.34l-1.09-7.25h-7.7l-1.09 7.25h-5.78l6.39-40.01h9.21zm-14.35-12.7h6.08l-3.04-20.23zm109.87-9.59h8.82v12.7c0 6.7-3.13 10.05-9.38 10.05s-9.37-3.35-9.37-10.05v-20.81c0-6.7 3.12-10.05 9.37-10.05s9.38 3.35 9.38 10.05v3.9h-5.94v-4.3c0-2.62-1.09-3.94-3.27-3.94s-3.26 1.31-3.26 3.94v21.6c0 2.6 1.09 3.91 3.26 3.91 2.18 0 3.27-1.3 3.27-3.91v-7.37h-2.87v-5.72zM615 932.02c-.2-.63-.35-1.17-.42-1.62-.09-.73-.14-1.82-.14-3.29v-6.28c0-3.4-1.38-5.1-4.13-5.1h-2.18v16.29h-6.28v-40.01h9.49c6.21 0 9.32 3.07 9.32 9.21v3.15c0 4.11-1.38 6.82-4.13 8.12 2.79 1.15 4.19 3.99 4.19 8.51v6.17c0 2.16.22 3.78.67 4.85zm-6.87-34.29v12.3h2.45c2.53 0 3.8-1.41 3.8-4.24v-3.94c0-2.75-1.07-4.13-3.21-4.13zm59.63 25.08c0 2.64 1.09 3.96 3.26 3.96s3.26-1.32 3.26-3.96v-21.6c0-2.62-1.09-3.94-3.26-3.94s-3.26 1.31-3.26 3.94zm-6.28-21.2q0-10.05 9.54-10.05c9.54 0 9.54 3.35 9.54 10.05v20.81q0 10.05-9.54 10.05c-9.54 0-9.54-3.35-9.54-10.05zm66.31-9.6v30.86c0 2.6 1.09 3.9 3.26 3.9 2.18 0 3.26-1.3 3.26-3.9v-30.86h5.94v30.47c0 6.7-3.13 10.05-9.38 10.05s-9.37-3.35-9.37-10.05v-30.47zm63.17 0c6.25 0 9.38 3.3 9.38 9.9v5.19c0 6.59-3.13 9.88-9.38 9.88h-2.99v15.04h-6.28v-40.01zm-2.99 5.72v13.56h2.99c2.05 0 3.07-1.26 3.07-3.8v-6c0-2.51-1.02-3.77-3.07-3.77h-2.99z" class="prefix__st0"/></svg>