<svg xmlns="http://www.w3.org/2000/svg" xml:space="preserve" id="Layer_1" x="0" y="0" version="1.1" viewBox="0 0 436 466"><style>.st0{fill:#fff}.st1{fill:none}</style><path d="M46.81 182.72h-28.2V3h28.2v77.07h32.08V3h28.82v179.71H78.89v-76.95H46.81z" class="st0"/><path d="M157.66 135.73h27.32l-13.66-74.88z" class="st1"/><path d="m152.02 34.62-28.7 148.1h25.94l4.89-26.85h34.59l4.89 26.85h28.45l-28.7-148.1zm5.64 101.11 13.66-74.88 13.66 74.88zm29.32-108.24L168.43 2.71h-30.45l27.7 24.78zm75.88 25.14v130.09h-25.44V3h35.47l28.95 107.65V3h25.19v179.71h-29.08zm129.27 29.95h39.6v57.02c0 30.08-14.04 45.12-42.11 45.12s-42.11-15.04-42.11-45.12V46.12C347.52 16.04 361.55 1 389.62 1s42.11 15.04 42.11 45.12v17.54h-26.69v-19.3c0-11.78-4.89-17.67-14.66-17.67s-14.66 5.89-14.66 17.67v97c0 11.7 4.89 17.55 14.66 17.55s14.66-5.85 14.66-17.55v-33.09h-12.91zM17.47 352.33H4.27v-32.81h13.2V208.05h63.49c39.95 0 59.92 21.11 59.92 63.31v129.3c0 42.09-19.97 63.13-59.92 63.13H17.47zm40.12-107.72v74.9h24.79v32.81H57.59v74.9h22.65c13.67 0 20.51-8.26 20.51-24.79V269.4c0-16.52-6.84-24.79-20.51-24.79zm294.19-36.56v197.24c0 16.65 6.96 24.97 20.87 24.97s20.87-8.32 20.87-24.97V208.05h37.99V402.8c0 42.8-19.97 64.2-59.92 64.2s-59.92-21.4-59.92-64.2V208.05z" class="st0"/><path d="M199.08 396.92h38.88l-19.44-106.55z" class="st1"/><path d="m304.03 243.07-26.39-35.27H234.3l39.41 35.27zm-84.86-8.73 13.6 16.86h28.76l-26.92-34.01h-30.46l-27.06 34.01h28.76zM190.1 260.7l-40.84 203.09h36.92l6.96-36.82h49.22l6.96 36.82h40.48L248.95 260.7zm8.98 136.22 19.44-106.55 19.44 106.55z" class="st0"/></svg>