<svg xmlns="http://www.w3.org/2000/svg" xml:space="preserve" viewBox="0 0 780 200"><path d="M28.67 191.24H0V8.5h28.67v78.37h32.62V8.5H90.6v182.74H61.29V113H28.67zm178.21 0h-28.93l-4.97-27.3h-35.17l-4.97 27.3h-26.38l29.18-150.59h42.05zM152.34 8.2l18.86 25.2h-21.66L121.38 8.2zm-10.96 135.26h27.78l-13.89-76.13zm537.37 47.78h-28.93l-4.97-26.31h-35.17l-4.97 26.31h-26.38l29.18-145.11h42.05zm-64.82-47.78h27.78l-13.89-76.13zM598.22 39.34l19.34-24.3h21.77l19.23 24.3H638l-9.72-12.05-9.52 12.05zm71.84-31.01 18.86 25.2h-21.66L639.1 8.33zm-421.7 50.64v132.27h-25.87V8.5h36.06l29.44 109.46V8.5h25.61v182.74h-29.56zM379.8 89.42h40.27v57.98c0 30.58-14.27 45.88-42.82 45.88-28.54 0-42.82-15.29-42.82-45.88V52.34c0-30.58 14.27-45.88 42.82-45.88 28.54 0 42.82 15.29 42.82 45.88v17.84h-27.14V50.56q0-17.97-14.91-17.97c-14.91 0-14.91 5.99-14.91 17.97v98.63c0 11.9 4.97 17.84 14.91 17.84s14.91-5.95 14.91-17.84v-33.64H379.8zm104.36 22.18h-9.43V88.15h9.43V8.5h45.37c28.54 0 42.82 15.08 42.82 45.24v92.39c0 30.07-14.27 45.11-42.82 45.11h-45.37zm28.67-76.97v53.52h17.71v23.45h-17.71v53.52h16.18c9.77 0 14.65-5.9 14.65-17.71V52.34c0-11.81-4.89-17.71-14.65-17.71zM723.04 8.5v140.94c0 11.9 4.97 17.84 14.91 17.84s14.91-5.95 14.91-17.84V8.5H780v139.16c0 30.58-14.27 45.88-42.82 45.88s-42.82-15.29-42.82-45.88V8.5z" style="fill:#fff"/></svg>